<svg height="200px" width="200px" version="1.1" id="Layer_1" xmlns="http://www.w3.org/2000/svg" xmlns:xlink="http://www.w3.org/1999/xlink" viewBox="0 0 512 512" xml:space="preserve" fill="#000000"><g id="SVGRepo_bgCarrier" stroke-width="0"></g><g id="SVGRepo_tracerCarrier" stroke-linecap="round" stroke-linejoin="round"></g><g id="SVGRepo_iconCarrier"> <path style="fill:#E6E6E6;" d="M472.265,55.155H40.234c-16.809,0-30.435,13.626-30.435,30.435v277.235 c0,16.809,13.626,30.435,30.435,30.435h432.031c16.809,0,30.435-13.626,30.435-30.435V85.59 C502.7,68.781,489.074,55.155,472.265,55.155z"></path> <path style="fill:#CCCCCC;" d="M33.852,362.826V85.59c0-16.81,13.626-30.436,30.435-30.436H40.229 C23.42,55.154,9.794,68.78,9.794,85.59v277.235c0,16.809,13.626,30.435,30.435,30.435h24.058 C47.478,393.261,33.852,379.635,33.852,362.826z"></path> <polygon style="fill:#E6E6E6;" points="341.78,457.342 170.714,457.342 181.228,393.264 331.278,393.264 336.535,425.303 "></polygon> <polygon style="fill:#CCCCCC;" points="336.535,425.303 175.971,425.303 181.228,393.264 331.278,393.264 "></polygon> <path style="fill:#4E60EA;" d="M502.7,85.59v261.671H9.794V85.59c0-16.815,13.633-30.435,30.435-30.435h432.036 C489.08,55.155,502.7,68.775,502.7,85.59z"></path> <path style="fill:#4E60EA;" d="M64.287,55.155H40.229c-16.802,0-30.435,13.62-30.435,30.435v261.671h24.058V85.59 C33.852,68.775,47.484,55.155,64.287,55.155z"></path> <path d="M472.018,45.359H39.982C17.935,45.359,0,63.294,0,85.341v186.277c0,5.272,4.274,9.547,9.547,9.547s9.547-4.274,9.547-9.547 V85.341c0-11.517,9.37-20.888,20.888-20.888h432.036c11.517,0,20.888,9.371,20.888,20.888v252.124h-44.692 c-5.272,0-9.547,4.274-9.547,9.547s4.274,9.547,9.547,9.547h44.692v6.021c0,11.517-9.37,20.888-20.888,20.888H39.982 c-11.519,0-20.888-9.371-20.888-20.888v-6.021h397.299c5.272,0,9.547-4.274,9.547-9.547s-4.274-9.547-9.547-9.547H19.094V303.44 c0-5.272-4.274-9.547-9.547-9.547S0,298.167,0,303.44v59.139c0,22.047,17.935,39.982,39.982,39.982h129.753l-7.375,44.987h-18.402 c-5.272,0-9.547,4.274-9.547,9.547s4.274,9.547,9.547,9.547h224.09c5.272,0,9.547-4.274,9.547-9.547s-4.274-9.547-9.547-9.547 h-18.402l-7.375-44.987h129.748c22.045,0,39.982-17.935,39.982-39.982V85.341C512,63.294,494.065,45.359,472.018,45.359z M330.296,447.548H181.71l7.375-44.987h133.837L330.296,447.548z"></path> <path d="M345.859,313.15c24.789,0,46.106-19.618,58.176-49.698c30.08-12.07,49.698-33.387,49.698-58.176 s-19.618-46.106-49.698-58.176c-12.07-30.08-33.388-49.698-58.176-49.698s-46.106,19.618-58.176,49.698 c-30.08,12.07-49.698,33.387-49.698,58.176s19.618,46.106,49.698,58.176C299.754,293.533,321.071,313.15,345.859,313.15z M345.859,294.056c-12.566,0-24.221-8.871-33.075-23.225c10.386,2.062,21.487,3.18,33.075,3.18s22.69-1.116,33.075-3.18 C370.08,285.185,358.425,294.056,345.859,294.056z M296.219,205.276c0-15.537,2.38-30.282,6.494-43.146 c12.863-4.114,27.609-6.494,43.145-6.494s30.282,2.38,43.145,6.494c4.114,12.863,6.494,27.609,6.494,43.146 s-2.38,30.282-6.494,43.146c-12.863,4.114-27.609,6.494-43.145,6.494s-30.282-2.38-43.145-6.494 C298.599,235.558,296.219,220.813,296.219,205.276z M434.639,205.276c0,12.566-8.871,24.22-23.225,33.075 c2.062-10.386,3.18-21.487,3.18-33.075s-1.116-22.69-3.18-33.075C425.768,181.057,434.639,192.71,434.639,205.276z M345.859,116.496 c12.566,0,24.221,8.871,33.075,23.225c-10.386-2.062-21.487-3.18-33.075-3.18s-22.69,1.116-33.075,3.18 C321.639,125.367,333.293,116.496,345.859,116.496z M257.079,205.276c0-12.566,8.871-24.22,23.225-33.075 c-2.062,10.386-3.18,21.487-3.18,33.075s1.116,22.689,3.18,33.075C265.95,229.496,257.079,217.842,257.079,205.276z"></path> <path d="M375.691,205.276c0-16.45-13.382-29.832-29.832-29.832s-29.832,13.382-29.832,29.832s13.382,29.832,29.832,29.832 S375.691,221.726,375.691,205.276z M335.121,205.276c0-5.922,4.817-10.738,10.738-10.738s10.738,4.817,10.738,10.738 c0,5.922-4.817,10.738-10.738,10.738S335.121,211.198,335.121,205.276z"></path> <path d="M188.699,129.224c5.272,0,9.547-4.274,9.547-9.547c0-5.272-4.274-9.547-9.547-9.547h-63.802 c-5.272,0-9.547,4.274-9.547,9.547c0,5.272,4.274,9.547,9.547,9.547H188.699z"></path> <path d="M72.235,129.224h27.204c5.272,0,9.547-4.274,9.547-9.547c0-5.272-4.274-9.547-9.547-9.547H72.235 c-5.272,0-9.547,4.274-9.547,9.547C62.688,124.949,66.961,129.224,72.235,129.224z"></path> <path d="M188.699,188.41h-24.342c-5.272,0-9.547,4.274-9.547,9.547s4.274,9.547,9.547,9.547h24.342c5.272,0,9.547-4.274,9.547-9.547 S193.971,188.41,188.699,188.41z"></path> <path d="M72.235,207.504h66.666c5.272,0,9.547-4.274,9.547-9.547s-4.274-9.547-9.547-9.547H72.235c-5.272,0-9.547,4.274-9.547,9.547 S66.961,207.504,72.235,207.504z"></path> <path d="M72.235,168.364H188.7c5.272,0,9.547-4.274,9.547-9.547c0-5.272-4.274-9.547-9.547-9.547H72.235 c-5.272,0-9.547,4.274-9.547,9.547C62.688,164.09,66.961,168.364,72.235,168.364z"></path> </g></svg>